<svg version="1.2" xmlns="http://www.w3.org/2000/svg" viewBox="0 0 512 512" width="512" height="512">
	<title>shopping-bag</title>
	<style>
		.s0 { fill: #000000 } 
	</style>
	<path class="s0" d="m120.5 0.9q1.8 0 3.6 0 6 0 12 0 4.3 0 8.6-0.1 12.8 0 25.7 0 6.1 0 12.2 0 20.2 0 40.4-0.1 5.3 0 10.5 0c1.3 0 1.3 0 2.6 0q21.1 0 42.2 0 21.7-0.1 43.3-0.1 12.2 0 24.3 0 11.5-0.1 22.9-0.1 4.2 0 8.4 0c30.2-0.2 57 5.7 80.7 25.6 1.2 1 1.2 1 2.5 2 22.1 18.4 33.3 46.1 36.1 74.2 0.7 8.7 0.9 17.3 1.2 26q0.2 3.8 0.3 7.7 0.4 10.6 0.8 21.1 0.4 8.8 0.7 17.7 0.8 22.1 1.7 44.3 0.6 17.8 1.3 35.7 0.8 20.9 1.6 41.7 0.4 11 0.8 22c2.1 52.3 2.1 52.3 2.3 77.8q0 2.9 0 5.8c0.3 16.6-2.2 31.8-9.7 46.9q-0.6 1.3-1.3 2.7c-13 25.9-36 45-63 54.9-10.3 3.3-19.5 4.4-30.2 4.4q-1.9 0-3.9 0-6.5 0-13 0-4.7 0-9.3 0-14 0-28 0.1-6.6 0-13.2 0-22 0-44 0-5.6 0-11.3 0-1.4 0-2.9 0-22.9 0-45.8 0.1-23.5 0.1-47.1 0.1-13.2 0-26.4 0-11.2 0-22.5 0-5.7 0-11.4 0c-35.4 0.2-63.7-7.4-89.7-32.5-5.1-5.1-9.3-10.9-13.4-16.9q-0.9-1.4-1.9-2.8c-12.1-18.6-15.8-40.3-15.5-62.1q0-2.7 0-5.4c0.3-25.6 1.3-51.2 2.3-76.7q0.3-8.9 0.7-17.7 0.8-22.1 1.6-44.1 0.7-19.1 1.4-38.1 0.8-19.8 1.5-39.5 0.4-11 0.8-22 0.4-10.4 0.8-20.7 0.1-3.7 0.3-7.5c1.3-38.3 8.6-70.3 37.3-97.6 19.5-16.8 44.3-26.8 70.1-26.8zm-41.4 52.5q-1.7 1.2-3.5 2.5c-15.3 13.5-22.8 33.4-24.3 53.3-0.3 6.9-0.6 13.8-0.8 20.7q-0.2 4-0.3 7.9-0.4 10.8-0.8 21.5-0.4 10.1-0.7 20.3-0.8 20.1-1.5 40.3-0.7 19.4-1.4 38.8-0.1 1.2-0.1 2.4-0.1 1.2-0.1 2.4-0.9 23.4-1.7 46.8-0.3 6.7-0.5 13.3c-0.7 18.1-1.3 36.1-1.8 54.1q-0.1 1.5-0.1 3-0.2 8.8-0.3 17.5-0.1 2-0.1 4c-0.1 20 8.4 37.5 22.1 51.7 18.1 16.1 37.6 20.7 61.2 20.6q1.7 0 3.6 0 5.9 0.1 11.8 0 4.2 0.1 8.5 0.1 10.3 0 20.6 0 8.4 0 16.8 0 23.8 0 47.7 0 1.3 0 2.6 0 1.3 0 2.6 0 20.8 0 41.6 0 21.4 0 42.9 0 12 0 24 0.1 11.3 0 22.6 0 4.1 0 8.2 0c23.5 0 44.5-0.2 64-15.1q1.3-0.9 2.5-1.9c14.3-11.5 24.1-29.9 26.8-47.9 0.4-4.2 0.4-8.4 0.4-12.6q0-1.4 0-2.7c-0.1-12-0.5-24-1-35.9q-0.1-4-0.3-8-0.4-10.8-0.8-21.5-0.3-7.9-0.6-15.7-0.8-21.2-1.5-42.4-0.1-1.2-0.1-2.5-0.1-1.1-0.1-2.4-0.8-19.4-1.5-38.9-0.7-20-1.5-40.1-0.4-11.2-0.8-22.4-0.4-10.6-0.8-21.1-0.1-3.9-0.3-7.7c-0.4-11.6-0.9-23.2-2.1-34.8-0.1-1.2-0.1-1.2-0.2-2.4-2.1-17.4-11.8-34-25.2-45.2-17.8-13.1-36.2-16.2-57.8-16.2q-1.6 0-3.2 0-5.4 0-10.8 0-3.9 0-7.8 0-10.4 0-20.9 0-6.6 0-13.2 0-21.7 0-43.5 0-1.2 0-2.4 0c-1.1 0-1.1 0-2.3 0q-19 0-38-0.1-19.5 0-39 0-11 0-21.9 0-10.3 0-20.6 0-3.8 0-7.6 0c-24.8-0.1-45.7 1.3-66.7 16.2z"/>
	<path class="s0" d="m160.9 76.9c5.2 4.2 6.6 8.6 7.4 15.1q0.3 3.4 0.7 6.8c2.3 20.9 8.9 37.8 22.8 53.8q0.8 1 1.7 2c14.8 16.3 37.9 24.4 59.3 25.6 23.8 0.3 44.9-7.5 62.9-23.2q1-0.9 2-1.7c17.6-16.1 24.3-40 25.7-62.9 0.5-5.8 1.7-9.4 5.5-14 5.9-4.4 12.8-4.2 19.9-3.3 4.3 1.3 7 3.3 9.5 7.2 2 5.1 2 9.5 1.9 14.8q0 1.6 0 3.2c-0.2 8.9-1.3 17.1-3.7 25.7q-0.5 2-1.1 4c-9 29.8-29.4 56.3-56.6 71.5-28.6 15.3-64.5 21.4-96 12q-2-0.6-4.1-1.1c-29.7-9-56.2-29.5-71.4-56.7-9.9-18.6-15.4-37.5-15.6-58.6q-0.1-1.6-0.1-3.2c-0.1-6.7 0.4-10.4 4.9-15.5 6.6-5 17-5.3 24.4-1.5z"/>
</svg>